<svg width="23" height="30" viewBox="0 0 23 30" fill="none" xmlns="http://www.w3.org/2000/svg"><path d="M20 10h-1.429V7.143C18.571 3.2 15.371 0 11.43 0a7.145 7.145 0 0 0-7.143 7.143V10H2.857A2.866 2.866 0 0 0 0 12.857v14.286A2.866 2.866 0 0 0 2.857 30H20a2.866 2.866 0 0 0 2.857-2.857V12.857A2.866 2.866 0 0 0 20 10zm-8.571 12.857A2.866 2.866 0 0 1 8.57 20a2.866 2.866 0 0 1 2.858-2.857A2.866 2.866 0 0 1 14.286 20a2.866 2.866 0 0 1-2.857 2.857zM15.857 10H7V7.143a4.432 4.432 0 0 1 4.429-4.429 4.432 4.432 0 0 1 4.428 4.429V10z" fill="#3C4043"/></svg>