<svg width="169" height="23" viewBox="0 0 169 23" xmlns="http://www.w3.org/2000/svg"><g fill="#5F6368" fill-rule="nonzero"><path d="M62.09 1.664h3.038v.1L58.34 9.593l7.241 10.224v.1H62.7L56.755 11.4 53.95 14.64v5.278h-2.351V1.664h2.35v9.415h.1zM69.984 3.117c0 .454-.166.853-.487 1.175-.322.322-.71.488-1.176.488-.455 0-.854-.166-1.175-.488a1.599 1.599 0 0 1-.488-1.175c0-.466.166-.854.488-1.176.321-.322.71-.488 1.175-.488.455 0 .854.166 1.176.488.332.333.487.72.487 1.176zm-.476 4.313v12.498h-2.351V7.43h2.35zM77.016 20.128c-1.02 0-1.864-.31-2.54-.943-.676-.632-1.02-1.508-1.031-2.628V9.57h-2.196V7.43h2.196V3.603h2.35V7.43h3.061v2.14h-3.06v6.222c0 .831.166 1.397.488 1.696.321.3.687.444 1.097.444.189 0 .366-.022.555-.067.188-.044.344-.1.499-.166l.743 2.096c-.632.222-1.342.333-2.162.333zM2.673 18.952C1.375 18.009.488 16.678 0 14.97l2.883-1.176c.289 1.076.799 1.94 1.542 2.628.732.677 1.619 1.02 2.65 1.02.965 0 1.774-.244 2.45-.742.677-.5 1.01-1.187 1.01-2.052 0-.798-.3-1.453-.887-1.974-.588-.521-1.62-1.042-3.094-1.564l-1.22-.432C4.025 10.224 2.928 9.57 2.04 8.716 1.153 7.862.71 6.742.71 5.346c0-.966.266-1.853.787-2.673C2.018 1.852 2.75 1.209 3.693.72 4.624.244 5.678 0 6.864 0c1.708 0 3.072.41 4.081 1.242 1.02.832 1.697 1.752 2.04 2.795L10.236 5.2c-.2-.621-.576-1.164-1.142-1.63-.565-.477-1.286-.71-2.173-.71s-1.641.222-2.251.676c-.61.455-.91 1.032-.91 1.742 0 .676.278 1.22.82 1.663.544.432 1.398.854 2.563 1.253l1.22.41c1.674.577 2.96 1.342 3.88 2.274.921.931 1.376 2.184 1.376 3.748 0 1.275-.322 2.34-.976 3.193a6.01 6.01 0 0 1-2.495 1.919 8.014 8.014 0 0 1-3.116.621c-1.62 0-3.072-.466-4.358-1.408zM15.969 3.449a1.95 1.95 0 0 1-.588-1.43c0-.566.2-1.043.588-1.431A1.95 1.95 0 0 1 17.399 0c.566 0 1.043.2 1.43.588.389.388.588.865.588 1.43 0 .566-.2 1.043-.587 1.43a1.95 1.95 0 0 1-1.43.589c-.566-.012-1.043-.2-1.431-.588zm-.067 2.595h2.994v13.883h-2.994V6.044zM25.405 19.85c-.543-.2-.986-.466-1.33-.788-.776-.776-1.176-1.84-1.176-3.182V8.683h-2.428v-2.64h2.428V2.13h2.994v3.926h3.372v2.639h-3.372v6.531c0 .743.145 1.276.433 1.575.277.366.743.543 1.42.543.31 0 .576-.044.82-.122.233-.077.488-.21.765-.399v2.917c-.599.277-1.32.41-2.173.41a5.01 5.01 0 0 1-1.753-.3zM33.623 19.407a6.63 6.63 0 0 1-2.529-2.628c-.61-1.12-.909-2.373-.909-3.77 0-1.332.3-2.551.887-3.693.588-1.132 1.409-2.04 2.462-2.706 1.053-.666 2.251-1.01 3.593-1.01 1.397 0 2.606.311 3.637.921a6.123 6.123 0 0 1 2.34 2.528c.532 1.076.799 2.274.799 3.627 0 .255-.023.576-.078.953H33.179c.111 1.287.566 2.285 1.375 2.983a4.162 4.162 0 0 0 2.817 1.043c.854 0 1.597-.189 2.218-.588a4.266 4.266 0 0 0 1.508-1.597l2.528 1.198c-.654 1.142-1.508 2.04-2.561 2.694-1.054.655-2.318.976-3.782.976-1.364.022-2.584-.288-3.66-.931zm7.23-8.051a3.332 3.332 0 0 0-.466-1.453c-.277-.477-.687-.887-1.242-1.208-.554-.322-1.23-.488-2.03-.488-.964 0-1.773.288-2.439.853-.665.566-1.12 1.342-1.375 2.296h7.552zM86 19.943v-8.951h2.527c.778 0 1.467.172 2.065.516.599.344 1.06.834 1.386 1.47.326.635.491 1.364.495 2.188v.572c0 .844-.163 1.584-.488 2.219a3.438 3.438 0 0 1-1.396 1.463c-.604.34-1.308.514-2.112.523H86zm1.18-7.98v7.014h1.242c.91 0 1.618-.282 2.124-.848.506-.565.76-1.37.76-2.416v-.522c0-1.017-.24-1.807-.717-2.37-.477-.564-1.155-.85-2.032-.858H87.18zm9.658 8.103c-.902 0-1.635-.297-2.2-.889-.566-.592-.85-1.384-.85-2.376v-.209c0-.66.127-1.249.379-1.767a2.95 2.95 0 0 1 1.057-1.217c.453-.293.944-.44 1.473-.44.864 0 1.537.285 2.016.855.48.57.72 1.385.72 2.446v.474h-4.507c.017.655.208 1.185.575 1.589.367.403.833.605 1.399.605.401 0 .741-.082 1.02-.246.279-.164.523-.38.732-.651l.694.54c-.557.857-1.393 1.286-2.508 1.286zm-.141-5.964c-.46 0-.845.167-1.156.501-.311.335-.504.803-.578 1.405h3.332v-.086c-.033-.578-.188-1.025-.467-1.343-.279-.318-.656-.477-1.131-.477zm6.246 4.298l1.647-5.109h1.162l-2.385 6.652h-.867l-2.41-6.652h1.162l1.69 5.109zm6.664 1.666c-.902 0-1.636-.297-2.201-.889-.566-.592-.849-1.384-.849-2.376v-.209c0-.66.126-1.249.378-1.767a2.95 2.95 0 0 1 1.058-1.217c.453-.293.943-.44 1.472-.44.865 0 1.537.285 2.017.855.48.57.719 1.385.719 2.446v.474h-4.506c.016.655.208 1.185.574 1.589.367.403.833.605 1.399.605.402 0 .742-.082 1.02-.246.28-.164.523-.38.732-.651l.695.54c-.558.857-1.394 1.286-2.508 1.286zm-.142-5.964c-.459 0-.844.167-1.156.501-.311.335-.504.803-.577 1.405h3.332v-.086c-.033-.578-.189-1.025-.468-1.343-.278-.318-.655-.477-1.13-.477zm5.287 5.84h-1.137V10.5h1.137v9.443zm1.518-3.387c0-.651.129-1.237.385-1.758.256-.52.612-.922 1.07-1.205a2.912 2.912 0 0 1 1.564-.424c.906 0 1.638.314 2.198.94.56.628.839 1.462.839 2.503v.08c0 .647-.124 1.228-.372 1.742a2.824 2.824 0 0 1-1.064 1.202c-.46.287-.99.43-1.589.43-.901 0-1.632-.313-2.191-.94-.56-.627-.84-1.457-.84-2.49v-.08zm1.144.136c0 .737.171 1.33.513 1.776.342.447.8.67 1.374.67.578 0 1.037-.226 1.377-.679.34-.453.51-1.087.51-1.903 0-.73-.173-1.32-.519-1.773a1.651 1.651 0 0 0-1.38-.68c-.562 0-1.014.224-1.359.67-.344.447-.516 1.087-.516 1.919zm11.957 0c0 1.012-.232 1.827-.695 2.446-.463.62-1.09.929-1.88.929-.808 0-1.444-.257-1.907-.769V22.5h-1.137v-9.209h1.039l.055.738c.463-.574 1.107-.861 1.93-.861.8 0 1.432.301 1.897.904.465.602.698 1.44.698 2.514v.105zm-1.137-.13c0-.75-.16-1.342-.48-1.776-.32-.435-.758-.652-1.315-.652-.689 0-1.205.306-1.55.916v3.178c.34.607.861.91 1.562.91.545 0 .978-.216 1.3-.648.322-.433.483-1.075.483-1.928zm5.342 3.505c-.902 0-1.635-.297-2.201-.889-.566-.592-.848-1.384-.848-2.376v-.209c0-.66.126-1.249.378-1.767a2.95 2.95 0 0 1 1.057-1.217c.453-.293.944-.44 1.472-.44.865 0 1.537.285 2.017.855.48.57.72 1.385.72 2.446v.474h-4.507c.016.655.208 1.185.575 1.589.367.403.833.605 1.398.605.402 0 .742-.082 1.02-.246.28-.164.523-.38.732-.651l.695.54c-.557.857-1.393 1.286-2.508 1.286zm-.142-5.964c-.459 0-.844.167-1.155.501-.312.335-.504.803-.578 1.405h3.332v-.086c-.033-.578-.189-1.025-.467-1.343-.28-.318-.656-.477-1.132-.477zm7.267.21a3.408 3.408 0 0 0-.56-.044c-.746 0-1.252.318-1.518.953v4.722h-1.137V13.29h1.106l.019.768c.373-.594.901-.891 1.586-.891.221 0 .39.029.504.086v1.057zm4.34 5.63v-8.95h2.926c.972 0 1.702.2 2.192.602.49.402.734.996.734 1.783 0 .418-.118.788-.356 1.11-.238.321-.562.57-.971.747.483.135.865.392 1.146.771.28.38.421.831.421 1.356 0 .803-.26 1.434-.78 1.893-.521.46-1.257.689-2.208.689h-3.104zm1.18-4.186v3.221h1.95c.548 0 .982-.142 1.3-.427.317-.285.476-.677.476-1.177 0-1.078-.586-1.617-1.758-1.617h-1.968zm0-.947h1.783c.516 0 .93-.129 1.239-.387.31-.258.464-.608.464-1.051 0-.492-.143-.85-.43-1.073-.287-.223-.724-.335-1.31-.335h-1.746v2.846zm9.24 5.257c-.902 0-1.635-.297-2.2-.889-.566-.592-.85-1.384-.85-2.376v-.209c0-.66.127-1.249.379-1.767a2.95 2.95 0 0 1 1.057-1.217c.453-.293.944-.44 1.473-.44.864 0 1.537.285 2.016.855.48.57.72 1.385.72 2.446v.474h-4.507c.017.655.208 1.185.575 1.589.367.403.833.605 1.399.605.401 0 .741-.082 1.02-.246.279-.164.523-.38.732-.651l.694.54c-.557.857-1.393 1.286-2.508 1.286zm-.141-5.964c-.46 0-.845.167-1.156.501-.312.335-.504.803-.578 1.405h3.332v-.086c-.033-.578-.188-1.025-.467-1.343-.279-.318-.656-.477-1.131-.477zm5.594-2.422v1.611h1.242v.88h-1.242v4.124c0 .266.055.466.166.6.11.133.3.2.565.2.132 0 .312-.025.541-.075v.923c-.299.082-.59.123-.872.123-.509 0-.892-.154-1.15-.461-.258-.308-.387-.744-.387-1.31V14.17h-1.211v-.879h1.21v-1.61h1.138zm6.676 8.263c-.065-.132-.119-.365-.16-.701-.528.549-1.16.824-1.893.824-.656 0-1.194-.186-1.614-.557a1.8 1.8 0 0 1-.63-1.41c0-.693.263-1.231.79-1.614.527-.384 1.267-.575 2.222-.575h1.107v-.523c0-.397-.119-.714-.357-.95-.237-.235-.588-.353-1.05-.353-.407 0-.747.102-1.021.307-.275.205-.412.453-.412.744h-1.144c0-.332.118-.652.354-.962.235-.31.555-.554.959-.734.403-.18.847-.271 1.33-.271.767 0 1.368.192 1.802.575.434.383.66.91.676 1.583v3.061c0 .611.078 1.097.234 1.457v.099h-1.193zm-1.887-.867c.356 0 .695-.092 1.014-.277.32-.184.551-.424.695-.72v-1.364h-.892c-1.393 0-2.09.408-2.09 1.224 0 .356.12.635.357.836.238.2.543.3.916.3z"/></g></svg>