<svg width="169" height="48" viewBox="0 0 169 48" xmlns="http://www.w3.org/2000/svg"><g fill-rule="nonzero" fill="none"><path d="M2.253 12.252l7.399 5.658A13.055 13.055 0 0 0 9 22c0 1.43.229 2.805.652 4.09l-7.4 5.658A22.02 22.02 0 0 1 0 22c0-3.506.81-6.814 2.253-9.748z" fill="#FBBC05"/><path d="M9.652 17.91l-7.4-5.658A21.935 21.935 0 0 1 22 0c5.6 0 10.6 2.1 14.5 5.5l-6.4 6.4C27.9 10.1 25.1 9 22 9c-5.77 0-10.64 3.725-12.348 8.91z" fill="#EA4335"/><path d="M2.25 31.742l7.396-5.67A12.975 12.975 0 0 0 22 35c6.1 0 10.7-3.1 11.8-8.5H22V18h20.5c.3 1.3.5 2.7.5 4 0 14-10 22-21 22A21.935 21.935 0 0 1 2.25 31.742z" fill="#34A853"/><path d="M36.34 38.52l-7.025-5.437c2.297-1.45 3.895-3.685 4.485-6.583H22V18h20.5c.3 1.3.5 2.7.5 4 0 7.17-2.623 12.767-6.66 16.52z" fill="#4285F4"/><path d="M51 43.877v-12.68h3.58c1.103 0 2.078.244 2.926.731a4.948 4.948 0 0 1 1.964 2.082c.461.9.695 1.933.7 3.1v.81c0 1.196-.23 2.244-.692 3.144a4.87 4.87 0 0 1-1.977 2.073c-.856.482-1.853.728-2.991.74H51zm1.672-11.304v9.937h1.76c1.288 0 2.291-.4 3.008-1.202.717-.801 1.076-1.942 1.076-3.423v-.74c0-1.44-.338-2.559-1.015-3.357-.676-.799-1.636-1.204-2.878-1.215h-1.95zM66.354 44.05c-1.277 0-2.317-.42-3.118-1.258-.801-.84-1.202-1.961-1.202-3.366v-.296c0-.935.179-1.77.536-2.504.357-.735.856-1.31 1.498-1.725a3.766 3.766 0 0 1 2.086-.622c1.225 0 2.177.403 2.856 1.21.68.807 1.02 1.963 1.02 3.466v.671h-6.385c.024.929.295 1.68.815 2.251.52.572 1.18.858 1.981.858.57 0 1.051-.116 1.446-.348.395-.232.74-.54 1.036-.923l.984.766c-.79 1.214-1.974 1.82-3.553 1.82zm-.2-8.448a2.15 2.15 0 0 0-1.638.71c-.44.473-.714 1.137-.818 1.99h4.72v-.122c-.046-.818-.267-1.453-.662-1.903-.395-.45-.929-.675-1.602-.675zm8.848 6.088l2.334-7.237h1.646l-3.379 9.423h-1.228l-3.414-9.423h1.646l2.395 7.237zm9.44 2.36c-1.277 0-2.316-.42-3.117-1.258-.801-.84-1.202-1.961-1.202-3.366v-.296c0-.935.178-1.77.536-2.504.357-.735.856-1.31 1.498-1.725a3.766 3.766 0 0 1 2.085-.622c1.225 0 2.178.403 2.857 1.21.68.807 1.019 1.963 1.019 3.466v.671h-6.384c.023.929.295 1.68.814 2.251.52.572 1.18.858 1.982.858.569 0 1.05-.116 1.445-.348.395-.232.74-.54 1.037-.923l.984.766c-.79 1.214-1.974 1.82-3.553 1.82zm-.2-8.448a2.15 2.15 0 0 0-1.637.71c-.441.473-.714 1.137-.819 1.99h4.72v-.122c-.046-.818-.266-1.453-.661-1.903-.395-.45-.93-.675-1.603-.675zm7.49 8.274h-1.611V30.5h1.611v13.377zm2.151-4.799c0-.923.182-1.753.545-2.49.362-.738.868-1.307 1.515-1.707.647-.401 1.386-.601 2.216-.601 1.283 0 2.321.444 3.114 1.332.792.889 1.189 2.07 1.189 3.545v.113c0 .917-.176 1.74-.527 2.469a4 4 0 0 1-1.507 1.703c-.653.406-1.404.61-2.251.61-1.278 0-2.312-.445-3.105-1.333-.793-.889-1.189-2.064-1.189-3.527v-.114zm1.62.192c0 1.045.242 1.884.727 2.517s1.134.95 1.947.95c.818 0 1.469-.322 1.95-.963.482-.642.723-1.54.723-2.696 0-1.033-.245-1.87-.736-2.512-.49-.642-1.142-.963-1.955-.963-.795 0-1.437.317-1.924.95-.488.633-.732 1.538-.732 2.717zm16.94 0c0 1.434-.329 2.59-.985 3.466-.656.877-1.544 1.315-2.665 1.315-1.144 0-2.044-.363-2.7-1.088V47.5h-1.61V34.454h1.47l.08 1.045c.655-.813 1.567-1.22 2.734-1.22 1.132 0 2.028.427 2.687 1.28.659.854.988 2.042.988 3.563v.148zm-1.612-.183c0-1.062-.226-1.901-.68-2.517-.452-.615-1.073-.923-1.863-.923-.976 0-1.707.433-2.195 1.298v4.502c.482.86 1.22 1.29 2.212 1.29.773 0 1.387-.307 1.842-.92.456-.612.684-1.522.684-2.73zm7.568 4.964c-1.277 0-2.317-.42-3.118-1.258-.801-.84-1.202-1.961-1.202-3.366v-.296c0-.935.179-1.77.536-2.504.357-.735.856-1.31 1.498-1.725a3.766 3.766 0 0 1 2.086-.622c1.225 0 2.177.403 2.856 1.21.68.807 1.02 1.963 1.02 3.466v.671h-6.384c.023.929.294 1.68.814 2.251.52.572 1.18.858 1.981.858.57 0 1.051-.116 1.446-.348.395-.232.74-.54 1.036-.923l.984.766c-.79 1.214-1.974 1.82-3.553 1.82zm-.2-8.448a2.15 2.15 0 0 0-1.638.71c-.44.473-.714 1.137-.818 1.99h4.72v-.122c-.046-.818-.267-1.453-.662-1.903-.395-.45-.929-.675-1.602-.675zm10.294.297a4.828 4.828 0 0 0-.793-.061c-1.056 0-1.773.45-2.15 1.35v6.688h-1.612v-9.423h1.568l.026 1.089c.528-.842 1.277-1.263 2.247-1.263.313 0 .551.04.714.122V35.9zm6.148 7.977v-12.68h4.146c1.376 0 2.41.284 3.105.853.693.57 1.04 1.411 1.04 2.526 0 .592-.168 1.116-.505 1.572-.336.456-.795.808-1.376 1.058.685.192 1.227.556 1.624 1.093.398.537.597 1.177.597 1.92 0 1.138-.369 2.032-1.106 2.683-.737.65-1.78.975-3.127.975h-4.398zm1.673-5.93v4.563h2.76c.778 0 1.392-.202 1.842-.606.45-.403.675-.959.675-1.667 0-1.527-.83-2.29-2.49-2.29h-2.787zm0-1.342h2.525c.732 0 1.317-.183 1.755-.549.438-.365.658-.862.658-1.489 0-.697-.204-1.203-.61-1.52-.407-.316-1.025-.474-1.855-.474h-2.473v4.032zm13.09 7.446c-1.278 0-2.317-.42-3.119-1.258-.8-.84-1.201-1.961-1.201-3.366v-.296c0-.935.178-1.77.535-2.504.357-.735.856-1.31 1.498-1.725a3.766 3.766 0 0 1 2.086-.622c1.225 0 2.177.403 2.856 1.21.68.807 1.02 1.963 1.02 3.466v.671h-6.384c.023.929.294 1.68.814 2.251.52.572 1.18.858 1.981.858.57 0 1.051-.116 1.446-.348.395-.232.74-.54 1.036-.923l.984.766c-.79 1.214-1.974 1.82-3.553 1.82zm-.201-8.448a2.15 2.15 0 0 0-1.637.71c-.442.473-.715 1.137-.82 1.99h4.721v-.122c-.046-.818-.267-1.453-.662-1.903-.394-.45-.929-.675-1.602-.675zm7.925-3.43v2.28h1.76V35.7h-1.76v5.844c0 .377.078.66.235.85.157.188.424.282.801.282a3.9 3.9 0 0 0 .767-.104v1.306a4.67 4.67 0 0 1-1.237.174c-.72 0-1.263-.217-1.628-.653-.366-.435-.55-1.054-.55-1.855v-5.844h-1.715v-1.245h1.716v-2.282h1.611zm9.458 11.704c-.093-.186-.168-.517-.226-.993-.75.778-1.643 1.167-2.683 1.167-.929 0-1.69-.262-2.286-.788-.595-.525-.893-1.192-.893-1.999 0-.98.373-1.743 1.12-2.286.746-.543 1.795-.814 3.148-.814h1.568v-.74c0-.564-.169-1.012-.506-1.346-.336-.334-.833-.5-1.489-.5-.575 0-1.057.145-1.446.435-.389.29-.583.641-.583 1.054h-1.62c0-.47.167-.925.5-1.363.335-.439.788-.786 1.36-1.041a4.57 4.57 0 0 1 1.885-.383c1.086 0 1.936.271 2.552.814.615.543.934 1.29.958 2.243v4.337c0 .865.11 1.553.33 2.064v.139h-1.689zm-2.674-1.228c.506 0 .985-.13 1.437-.392.453-.261.781-.6.985-1.019v-1.933h-1.263c-1.974 0-2.961.578-2.961 1.733 0 .505.168.9.505 1.184.337.285.769.427 1.297.427z" fill="#5F6368"/></g></svg>